<svg width="163" height="58" viewBox="0 0 163 58" fill="none" xmlns="http://www.w3.org/2000/svg">
<rect width="163" height="58" rx="14" fill="#D7F1F7"/>
<path d="M23.7032 23.7144C23.7324 22.81 23.9815 21.4776 24.8485 20.6024C25.6533 19.7899 26.633 19.3939 27.2432 19.2129C27.4788 19.143 27.7048 19.3206 27.6932 19.5661C27.6523 20.4319 27.4247 21.7233 26.8373 22.4151C26.2836 23.0672 25.3929 23.932 24.0882 24.0776C23.8746 24.1014 23.6963 23.9292 23.7032 23.7144Z" fill="#0c332e"/>
<path d="M25.9373 40.2683C26.5638 40.5083 27.1972 40.7509 27.7705 40.7509C28.9969 40.7509 32.568 37.9214 32.6966 34.9826C32.7032 34.8317 32.6131 34.6969 32.4812 34.6231C31.5729 34.1148 30.0895 32.8491 30.0379 31.0078C29.9777 28.8619 31.0551 27.1575 31.8705 26.4525C32.0541 26.2938 32.1171 26.0141 31.9533 25.8351C31.2114 25.0249 29.7188 23.9105 28.357 23.9378C27.3663 23.9577 26.4736 24.3268 25.7077 24.6435C25.12 24.8864 24.6069 25.0986 24.1812 25.0986C23.778 25.0986 23.294 24.8878 22.7385 24.6459C21.9904 24.3201 21.1126 23.9378 20.1279 23.9378C18.304 23.9378 14.7002 25.4503 14.7002 31.2892C14.7002 34.3845 17.8956 40.833 20.5919 40.7509C21.1741 40.7509 21.7964 40.5098 22.4138 40.2706C23.0218 40.035 23.6252 39.8012 24.1812 39.8012C24.718 39.8012 25.3243 40.0335 25.9373 40.2683Z" fill="#0c332e"/>
<path d="M56.55 17.204C56.55 17.848 56.448 18.434 56.244 18.962C56.04 19.49 55.752 19.942 55.38 20.318C55.008 20.694 54.56 20.986 54.036 21.194C53.516 21.398 52.94 21.5 52.308 21.5H49.098V12.902H52.308C52.94 12.902 53.516 13.006 54.036 13.214C54.56 13.418 55.008 13.71 55.38 14.09C55.752 14.466 56.04 14.918 56.244 15.446C56.448 15.974 56.55 16.56 56.55 17.204ZM55.356 17.204C55.356 16.676 55.284 16.204 55.14 15.788C54.996 15.372 54.792 15.02 54.528 14.732C54.264 14.444 53.944 14.224 53.568 14.072C53.192 13.92 52.772 13.844 52.308 13.844H50.262V20.558H52.308C52.772 20.558 53.192 20.482 53.568 20.33C53.944 20.178 54.264 19.96 54.528 19.676C54.792 19.388 54.996 19.036 55.14 18.62C55.284 18.204 55.356 17.732 55.356 17.204ZM60.5149 15.326C60.9589 15.326 61.3589 15.4 61.7149 15.548C62.0709 15.696 62.3749 15.906 62.6269 16.178C62.8789 16.45 63.0709 16.78 63.2029 17.168C63.3389 17.552 63.4069 17.982 63.4069 18.458C63.4069 18.938 63.3389 19.37 63.2029 19.754C63.0709 20.138 62.8789 20.466 62.6269 20.738C62.3749 21.01 62.0709 21.22 61.7149 21.368C61.3589 21.512 60.9589 21.584 60.5149 21.584C60.0669 21.584 59.6629 21.512 59.3029 21.368C58.9469 21.22 58.6429 21.01 58.3909 20.738C58.1389 20.466 57.9449 20.138 57.8089 19.754C57.6769 19.37 57.6109 18.938 57.6109 18.458C57.6109 17.982 57.6769 17.552 57.8089 17.168C57.9449 16.78 58.1389 16.45 58.3909 16.178C58.6429 15.906 58.9469 15.696 59.3029 15.548C59.6629 15.4 60.0669 15.326 60.5149 15.326ZM60.5149 20.75C61.1149 20.75 61.5629 20.55 61.8589 20.15C62.1549 19.746 62.3029 19.184 62.3029 18.464C62.3029 17.74 62.1549 17.176 61.8589 16.772C61.5629 16.368 61.1149 16.166 60.5149 16.166C60.2109 16.166 59.9449 16.218 59.7169 16.322C59.4929 16.426 59.3049 16.576 59.1529 16.772C59.0049 16.968 58.8929 17.21 58.8169 17.498C58.7449 17.782 58.7089 18.104 58.7089 18.464C58.7089 19.184 58.8569 19.746 59.1529 20.15C59.4529 20.55 59.9069 20.75 60.5149 20.75ZM73.1097 15.422L71.1417 21.5H70.2957C70.1917 21.5 70.1197 21.432 70.0797 21.296L68.7357 17.174C68.7037 17.082 68.6777 16.99 68.6577 16.898C68.6377 16.802 68.6177 16.708 68.5977 16.616C68.5777 16.708 68.5577 16.802 68.5377 16.898C68.5177 16.99 68.4917 17.084 68.4597 17.18L67.0917 21.296C67.0557 21.432 66.9757 21.5 66.8517 21.5H66.0477L64.0797 15.422H64.9197C65.0037 15.422 65.0737 15.444 65.1297 15.488C65.1897 15.532 65.2297 15.584 65.2497 15.644L66.4137 19.556C66.4817 19.844 66.5357 20.116 66.5757 20.372C66.6117 20.24 66.6477 20.106 66.6837 19.97C66.7237 19.834 66.7657 19.696 66.8097 19.556L68.0937 15.62C68.1137 15.56 68.1477 15.51 68.1957 15.47C68.2477 15.43 68.3097 15.41 68.3817 15.41H68.8497C68.9297 15.41 68.9957 15.43 69.0477 15.47C69.0997 15.51 69.1357 15.56 69.1557 15.62L70.4097 19.556C70.4537 19.696 70.4937 19.834 70.5297 19.97C70.5657 20.106 70.5997 20.24 70.6317 20.372C70.6517 20.24 70.6757 20.108 70.7037 19.976C70.7357 19.84 70.7697 19.7 70.8057 19.556L71.9937 15.644C72.0137 15.58 72.0517 15.528 72.1077 15.488C72.1637 15.444 72.2297 15.422 72.3057 15.422H73.1097ZM75.2176 16.304C75.3496 16.156 75.4896 16.022 75.6376 15.902C75.7856 15.782 75.9416 15.68 76.1056 15.596C76.2736 15.508 76.4496 15.442 76.6336 15.398C76.8216 15.35 77.0236 15.326 77.2396 15.326C77.5716 15.326 77.8636 15.382 78.1156 15.494C78.3716 15.602 78.5836 15.758 78.7516 15.962C78.9236 16.162 79.0536 16.404 79.1416 16.688C79.2296 16.972 79.2736 17.286 79.2736 17.63V21.5H78.1996V17.63C78.1996 17.17 78.0936 16.814 77.8816 16.562C77.6736 16.306 77.3556 16.178 76.9276 16.178C76.6116 16.178 76.3156 16.254 76.0396 16.406C75.7676 16.558 75.5156 16.764 75.2836 17.024V21.5H74.2096V15.422H74.8516C75.0036 15.422 75.0976 15.496 75.1336 15.644L75.2176 16.304ZM82.065 12.662V21.5H80.997V12.662H82.065ZM86.4189 15.326C86.8629 15.326 87.2629 15.4 87.6189 15.548C87.9749 15.696 88.2789 15.906 88.5309 16.178C88.7829 16.45 88.9749 16.78 89.1069 17.168C89.2429 17.552 89.3109 17.982 89.3109 18.458C89.3109 18.938 89.2429 19.37 89.1069 19.754C88.9749 20.138 88.7829 20.466 88.5309 20.738C88.2789 21.01 87.9749 21.22 87.6189 21.368C87.2629 21.512 86.8629 21.584 86.4189 21.584C85.9709 21.584 85.5669 21.512 85.2069 21.368C84.8509 21.22 84.5469 21.01 84.2949 20.738C84.0429 20.466 83.8489 20.138 83.7129 19.754C83.5809 19.37 83.5149 18.938 83.5149 18.458C83.5149 17.982 83.5809 17.552 83.7129 17.168C83.8489 16.78 84.0429 16.45 84.2949 16.178C84.5469 15.906 84.8509 15.696 85.2069 15.548C85.5669 15.4 85.9709 15.326 86.4189 15.326ZM86.4189 20.75C87.0189 20.75 87.4669 20.55 87.7629 20.15C88.0589 19.746 88.2069 19.184 88.2069 18.464C88.2069 17.74 88.0589 17.176 87.7629 16.772C87.4669 16.368 87.0189 16.166 86.4189 16.166C86.1149 16.166 85.8489 16.218 85.6209 16.322C85.3969 16.426 85.2089 16.576 85.0569 16.772C84.9089 16.968 84.7969 17.21 84.7209 17.498C84.6489 17.782 84.6129 18.104 84.6129 18.464C84.6129 19.184 84.7609 19.746 85.0569 20.15C85.3569 20.55 85.8109 20.75 86.4189 20.75ZM94.0195 18.764C93.5275 18.78 93.1075 18.82 92.7595 18.884C92.4155 18.944 92.1335 19.024 91.9135 19.124C91.6975 19.224 91.5395 19.342 91.4395 19.478C91.3435 19.614 91.2955 19.766 91.2955 19.934C91.2955 20.094 91.3215 20.232 91.3735 20.348C91.4255 20.464 91.4955 20.56 91.5835 20.636C91.6755 20.708 91.7815 20.762 91.9015 20.798C92.0255 20.83 92.1575 20.846 92.2975 20.846C92.4855 20.846 92.6575 20.828 92.8135 20.792C92.9695 20.752 93.1155 20.696 93.2515 20.624C93.3915 20.552 93.5235 20.466 93.6475 20.366C93.7755 20.266 93.8995 20.152 94.0195 20.024V18.764ZM90.5695 16.28C90.9055 15.956 91.2675 15.714 91.6555 15.554C92.0435 15.394 92.4735 15.314 92.9455 15.314C93.2855 15.314 93.5875 15.37 93.8515 15.482C94.1155 15.594 94.3375 15.75 94.5175 15.95C94.6975 16.15 94.8335 16.392 94.9255 16.676C95.0175 16.96 95.0635 17.272 95.0635 17.612V21.5H94.5895C94.4855 21.5 94.4055 21.484 94.3495 21.452C94.2935 21.416 94.2495 21.348 94.2175 21.248L94.0975 20.672C93.9375 20.82 93.7815 20.952 93.6295 21.068C93.4775 21.18 93.3175 21.276 93.1495 21.356C92.9815 21.432 92.8015 21.49 92.6095 21.53C92.4215 21.574 92.2115 21.596 91.9795 21.596C91.7435 21.596 91.5215 21.564 91.3135 21.5C91.1055 21.432 90.9235 21.332 90.7675 21.2C90.6155 21.068 90.4935 20.902 90.4015 20.702C90.3135 20.498 90.2695 20.258 90.2695 19.982C90.2695 19.742 90.3355 19.512 90.4675 19.292C90.5995 19.068 90.8135 18.87 91.1095 18.698C91.4055 18.526 91.7915 18.386 92.2675 18.278C92.7435 18.166 93.3275 18.102 94.0195 18.086V17.612C94.0195 17.14 93.9175 16.784 93.7135 16.544C93.5095 16.3 93.2115 16.178 92.8195 16.178C92.5555 16.178 92.3335 16.212 92.1535 16.28C91.9775 16.344 91.8235 16.418 91.6915 16.502C91.5635 16.582 91.4515 16.656 91.3555 16.724C91.2635 16.788 91.1715 16.82 91.0795 16.82C91.0075 16.82 90.9455 16.802 90.8935 16.766C90.8415 16.726 90.7975 16.678 90.7615 16.622L90.5695 16.28ZM100.71 16.868C100.51 16.6 100.294 16.414 100.062 16.31C99.8304 16.202 99.5704 16.148 99.2824 16.148C98.7184 16.148 98.2844 16.35 97.9804 16.754C97.6764 17.158 97.5244 17.734 97.5244 18.482C97.5244 18.878 97.5584 19.218 97.6264 19.502C97.6944 19.782 97.7944 20.014 97.9264 20.198C98.0584 20.378 98.2204 20.51 98.4124 20.594C98.6044 20.678 98.8224 20.72 99.0664 20.72C99.4184 20.72 99.7244 20.64 99.9844 20.48C100.248 20.32 100.49 20.094 100.71 19.802V16.868ZM101.778 12.662V21.5H101.142C100.99 21.5 100.894 21.426 100.854 21.278L100.758 20.54C100.498 20.852 100.202 21.104 99.8704 21.296C99.5384 21.488 99.1544 21.584 98.7184 21.584C98.3704 21.584 98.0544 21.518 97.7704 21.386C97.4864 21.25 97.2444 21.052 97.0444 20.792C96.8444 20.532 96.6904 20.208 96.5824 19.82C96.4744 19.432 96.4204 18.986 96.4204 18.482C96.4204 18.034 96.4804 17.618 96.6004 17.234C96.7204 16.846 96.8924 16.51 97.1164 16.226C97.3404 15.942 97.6144 15.72 97.9384 15.56C98.2664 15.396 98.6344 15.314 99.0424 15.314C99.4144 15.314 99.7324 15.378 99.9964 15.506C100.264 15.63 100.502 15.804 100.71 16.028V12.662H101.778ZM114.852 17.204C114.852 17.848 114.75 18.44 114.546 18.98C114.342 19.516 114.054 19.978 113.682 20.366C113.31 20.754 112.862 21.056 112.338 21.272C111.818 21.484 111.242 21.59 110.61 21.59C109.978 21.59 109.402 21.484 108.882 21.272C108.362 21.056 107.916 20.754 107.544 20.366C107.172 19.978 106.884 19.516 106.68 18.98C106.476 18.44 106.374 17.848 106.374 17.204C106.374 16.56 106.476 15.97 106.68 15.434C106.884 14.894 107.172 14.43 107.544 14.042C107.916 13.65 108.362 13.346 108.882 13.13C109.402 12.914 109.978 12.806 110.61 12.806C111.242 12.806 111.818 12.914 112.338 13.13C112.862 13.346 113.31 13.65 113.682 14.042C114.054 14.43 114.342 14.894 114.546 15.434C114.75 15.97 114.852 16.56 114.852 17.204ZM113.658 17.204C113.658 16.676 113.586 16.202 113.442 15.782C113.298 15.362 113.094 15.008 112.83 14.72C112.566 14.428 112.246 14.204 111.87 14.048C111.494 13.892 111.074 13.814 110.61 13.814C110.15 13.814 109.732 13.892 109.356 14.048C108.98 14.204 108.658 14.428 108.39 14.72C108.126 15.008 107.922 15.362 107.778 15.782C107.634 16.202 107.562 16.676 107.562 17.204C107.562 17.732 107.634 18.206 107.778 18.626C107.922 19.042 108.126 19.396 108.39 19.688C108.658 19.976 108.98 20.198 109.356 20.354C109.732 20.506 110.15 20.582 110.61 20.582C111.074 20.582 111.494 20.506 111.87 20.354C112.246 20.198 112.566 19.976 112.83 19.688C113.094 19.396 113.298 19.042 113.442 18.626C113.586 18.206 113.658 17.732 113.658 17.204ZM121.229 15.422V21.5H120.593C120.441 21.5 120.345 21.426 120.305 21.278L120.221 20.624C119.957 20.916 119.661 21.152 119.333 21.332C119.005 21.508 118.629 21.596 118.205 21.596C117.873 21.596 117.579 21.542 117.323 21.434C117.071 21.322 116.859 21.166 116.687 20.966C116.515 20.766 116.385 20.524 116.297 20.24C116.213 19.956 116.171 19.642 116.171 19.298V15.422H117.239V19.298C117.239 19.758 117.343 20.114 117.551 20.366C117.763 20.618 118.085 20.744 118.517 20.744C118.833 20.744 119.127 20.67 119.399 20.522C119.675 20.37 119.929 20.162 120.161 19.898V15.422H121.229ZM123.997 16.64C124.189 16.224 124.425 15.9 124.705 15.668C124.985 15.432 125.327 15.314 125.731 15.314C125.859 15.314 125.981 15.328 126.097 15.356C126.217 15.384 126.323 15.428 126.415 15.488L126.337 16.286C126.313 16.386 126.253 16.436 126.157 16.436C126.101 16.436 126.019 16.424 125.911 16.4C125.803 16.376 125.681 16.364 125.545 16.364C125.353 16.364 125.181 16.392 125.029 16.448C124.881 16.504 124.747 16.588 124.627 16.7C124.511 16.808 124.405 16.944 124.309 17.108C124.217 17.268 124.133 17.452 124.057 17.66V21.5H122.983V15.422H123.595C123.711 15.422 123.791 15.444 123.835 15.488C123.879 15.532 123.909 15.608 123.925 15.716L123.997 16.64ZM134.706 18.308L133.356 14.81C133.316 14.706 133.274 14.586 133.23 14.45C133.186 14.31 133.144 14.162 133.104 14.006C133.02 14.33 132.934 14.6 132.846 14.816L131.496 18.308H134.706ZM137.13 21.5H136.23C136.126 21.5 136.042 21.474 135.978 21.422C135.914 21.37 135.866 21.304 135.834 21.224L135.03 19.148H131.172L130.368 21.224C130.344 21.296 130.298 21.36 130.23 21.416C130.162 21.472 130.078 21.5 129.978 21.5H129.078L132.516 12.902H133.692L137.13 21.5ZM139.119 20.036C139.315 20.3 139.529 20.486 139.761 20.594C139.993 20.702 140.253 20.756 140.541 20.756C141.109 20.756 141.545 20.554 141.849 20.15C142.153 19.746 142.305 19.17 142.305 18.422C142.305 18.026 142.269 17.686 142.197 17.402C142.129 17.118 142.029 16.886 141.897 16.706C141.765 16.522 141.603 16.388 141.411 16.304C141.219 16.22 141.001 16.178 140.757 16.178C140.409 16.178 140.103 16.258 139.839 16.418C139.579 16.578 139.339 16.804 139.119 17.096V20.036ZM139.065 16.364C139.321 16.048 139.617 15.794 139.953 15.602C140.289 15.41 140.673 15.314 141.105 15.314C141.457 15.314 141.775 15.382 142.059 15.518C142.343 15.65 142.585 15.848 142.785 16.112C142.985 16.372 143.139 16.696 143.247 17.084C143.355 17.472 143.409 17.918 143.409 18.422C143.409 18.87 143.349 19.288 143.229 19.676C143.109 20.06 142.935 20.394 142.707 20.678C142.483 20.958 142.207 21.18 141.879 21.344C141.555 21.504 141.189 21.584 140.781 21.584C140.409 21.584 140.089 21.522 139.821 21.398C139.557 21.27 139.323 21.094 139.119 20.87V23.558H138.045V15.422H138.687C138.839 15.422 138.933 15.496 138.969 15.644L139.065 16.364ZM145.906 20.036C146.102 20.3 146.316 20.486 146.548 20.594C146.78 20.702 147.04 20.756 147.328 20.756C147.896 20.756 148.332 20.554 148.636 20.15C148.94 19.746 149.092 19.17 149.092 18.422C149.092 18.026 149.056 17.686 148.984 17.402C148.916 17.118 148.816 16.886 148.684 16.706C148.552 16.522 148.39 16.388 148.198 16.304C148.006 16.22 147.788 16.178 147.544 16.178C147.196 16.178 146.89 16.258 146.626 16.418C146.366 16.578 146.126 16.804 145.906 17.096V20.036ZM145.852 16.364C146.108 16.048 146.404 15.794 146.74 15.602C147.076 15.41 147.46 15.314 147.892 15.314C148.244 15.314 148.562 15.382 148.846 15.518C149.13 15.65 149.372 15.848 149.572 16.112C149.772 16.372 149.926 16.696 150.034 17.084C150.142 17.472 150.196 17.918 150.196 18.422C150.196 18.87 150.136 19.288 150.016 19.676C149.896 20.06 149.722 20.394 149.494 20.678C149.27 20.958 148.994 21.18 148.666 21.344C148.342 21.504 147.976 21.584 147.568 21.584C147.196 21.584 146.876 21.522 146.608 21.398C146.344 21.27 146.11 21.094 145.906 20.87V23.558H144.832V15.422H145.474C145.626 15.422 145.72 15.496 145.756 15.644L145.852 16.364Z" fill="#0c332e"/>
<path d="M56.496 39.712L54.471 34.465C54.411 34.309 54.348 34.129 54.282 33.925C54.216 33.715 54.153 33.493 54.093 33.259C53.967 33.745 53.838 34.15 53.706 34.474L51.681 39.712H56.496ZM60.132 44.5H58.782C58.626 44.5 58.5 44.461 58.404 44.383C58.308 44.305 58.236 44.206 58.188 44.086L56.982 40.972H51.195L49.989 44.086C49.953 44.194 49.884 44.29 49.782 44.374C49.68 44.458 49.554 44.5 49.404 44.5H48.054L53.211 31.603H54.975L60.132 44.5ZM63.1165 42.304C63.4105 42.7 63.7315 42.979 64.0795 43.141C64.4275 43.303 64.8175 43.384 65.2495 43.384C66.1015 43.384 66.7555 43.081 67.2115 42.475C67.6675 41.869 67.8955 41.005 67.8955 39.883C67.8955 39.289 67.8415 38.779 67.7335 38.353C67.6315 37.927 67.4815 37.579 67.2835 37.309C67.0855 37.033 66.8425 36.832 66.5545 36.706C66.2665 36.58 65.9395 36.517 65.5735 36.517C65.0515 36.517 64.5925 36.637 64.1965 36.877C63.8065 37.117 63.4465 37.456 63.1165 37.894V42.304ZM63.0355 36.796C63.4195 36.322 63.8635 35.941 64.3675 35.653C64.8715 35.365 65.4475 35.221 66.0955 35.221C66.6235 35.221 67.1005 35.323 67.5265 35.527C67.9525 35.725 68.3155 36.022 68.6155 36.418C68.9155 36.808 69.1465 37.294 69.3085 37.876C69.4705 38.458 69.5515 39.127 69.5515 39.883C69.5515 40.555 69.4615 41.182 69.2815 41.764C69.1015 42.34 68.8405 42.841 68.4985 43.267C68.1625 43.687 67.7485 44.02 67.2565 44.266C66.7705 44.506 66.2215 44.626 65.6095 44.626C65.0515 44.626 64.5715 44.533 64.1695 44.347C63.7735 44.155 63.4225 43.891 63.1165 43.555V47.587H61.5055V35.383H62.4685C62.6965 35.383 62.8375 35.494 62.8915 35.716L63.0355 36.796ZM73.2963 42.304C73.5903 42.7 73.9113 42.979 74.2593 43.141C74.6073 43.303 74.9973 43.384 75.4293 43.384C76.2813 43.384 76.9353 43.081 77.3913 42.475C77.8473 41.869 78.0753 41.005 78.0753 39.883C78.0753 39.289 78.0213 38.779 77.9133 38.353C77.8113 37.927 77.6613 37.579 77.4633 37.309C77.2653 37.033 77.0223 36.832 76.7343 36.706C76.4463 36.58 76.1193 36.517 75.7533 36.517C75.2313 36.517 74.7723 36.637 74.3763 36.877C73.9863 37.117 73.6263 37.456 73.2963 37.894V42.304ZM73.2153 36.796C73.5993 36.322 74.0433 35.941 74.5473 35.653C75.0513 35.365 75.6273 35.221 76.2753 35.221C76.8033 35.221 77.2803 35.323 77.7063 35.527C78.1323 35.725 78.4953 36.022 78.7953 36.418C79.0953 36.808 79.3263 37.294 79.4883 37.876C79.6503 38.458 79.7313 39.127 79.7313 39.883C79.7313 40.555 79.6413 41.182 79.4613 41.764C79.2813 42.34 79.0203 42.841 78.6783 43.267C78.3423 43.687 77.9283 44.02 77.4363 44.266C76.9503 44.506 76.4013 44.626 75.7893 44.626C75.2313 44.626 74.7513 44.533 74.3493 44.347C73.9533 44.155 73.6023 43.891 73.2963 43.555V47.587H71.6853V35.383H72.6483C72.8763 35.383 73.0173 35.494 73.0713 35.716L73.2153 36.796ZM93.5356 33.619C93.4816 33.709 93.4216 33.778 93.3556 33.826C93.2956 33.868 93.2206 33.889 93.1306 33.889C93.0286 33.889 92.9086 33.838 92.7706 33.736C92.6326 33.634 92.4586 33.523 92.2486 33.403C92.0446 33.277 91.7956 33.163 91.5016 33.061C91.2136 32.959 90.8626 32.908 90.4486 32.908C90.0586 32.908 89.7136 32.962 89.4136 33.07C89.1196 33.172 88.8706 33.313 88.6666 33.493C88.4686 33.673 88.3186 33.886 88.2166 34.132C88.1146 34.372 88.0636 34.633 88.0636 34.915C88.0636 35.275 88.1506 35.575 88.3246 35.815C88.5046 36.049 88.7386 36.25 89.0266 36.418C89.3206 36.586 89.6506 36.733 90.0166 36.859C90.3886 36.979 90.7666 37.105 91.1506 37.237C91.5406 37.369 91.9186 37.519 92.2846 37.687C92.6566 37.849 92.9866 38.056 93.2746 38.308C93.5686 38.56 93.8026 38.869 93.9766 39.235C94.1566 39.601 94.2466 40.051 94.2466 40.585C94.2466 41.149 94.1506 41.68 93.9586 42.178C93.7666 42.67 93.4846 43.099 93.1126 43.465C92.7466 43.831 92.2936 44.119 91.7536 44.329C91.2196 44.539 90.6106 44.644 89.9266 44.644C89.0866 44.644 88.3246 44.494 87.6406 44.194C86.9566 43.888 86.3716 43.477 85.8856 42.961L86.3896 42.133C86.4376 42.067 86.4946 42.013 86.5606 41.971C86.6326 41.923 86.7106 41.899 86.7946 41.899C86.8726 41.899 86.9596 41.932 87.0556 41.998C87.1576 42.058 87.2716 42.136 87.3976 42.232C87.5236 42.328 87.6676 42.433 87.8296 42.547C87.9916 42.661 88.1746 42.766 88.3786 42.862C88.5886 42.958 88.8256 43.039 89.0896 43.105C89.3536 43.165 89.6506 43.195 89.9806 43.195C90.3946 43.195 90.7636 43.138 91.0876 43.024C91.4116 42.91 91.6846 42.751 91.9066 42.547C92.1346 42.337 92.3086 42.088 92.4286 41.8C92.5486 41.512 92.6086 41.191 92.6086 40.837C92.6086 40.447 92.5186 40.129 92.3386 39.883C92.1646 39.631 91.9336 39.421 91.6456 39.253C91.3576 39.085 91.0276 38.944 90.6556 38.83C90.2836 38.71 89.9056 38.59 89.5216 38.47C89.1376 38.344 88.7596 38.2 88.3876 38.038C88.0156 37.876 87.6856 37.666 87.3976 37.408C87.1096 37.15 86.8756 36.829 86.6956 36.445C86.5216 36.055 86.4346 35.575 86.4346 35.005C86.4346 34.549 86.5216 34.108 86.6956 33.682C86.8756 33.256 87.1336 32.878 87.4696 32.548C87.8116 32.218 88.2286 31.954 88.7206 31.756C89.2186 31.558 89.7886 31.459 90.4306 31.459C91.1506 31.459 91.8046 31.573 92.3926 31.801C92.9866 32.029 93.5086 32.359 93.9586 32.791L93.5356 33.619ZM98.8188 44.644C98.0988 44.644 97.5438 44.443 97.1538 44.041C96.7698 43.639 96.5778 43.06 96.5778 42.304V36.724H95.4798C95.3838 36.724 95.3028 36.697 95.2368 36.643C95.1708 36.583 95.1378 36.493 95.1378 36.373V35.734L96.6318 35.545L97.0008 32.728C97.0188 32.638 97.0578 32.566 97.1178 32.512C97.1838 32.452 97.2678 32.422 97.3698 32.422H98.1798V35.563H100.817V36.724H98.1798V42.196C98.1798 42.58 98.2728 42.865 98.4588 43.051C98.6448 43.237 98.8848 43.33 99.1788 43.33C99.3468 43.33 99.4908 43.309 99.6108 43.267C99.7368 43.219 99.8448 43.168 99.9348 43.114C100.025 43.06 100.1 43.012 100.16 42.97C100.226 42.922 100.283 42.898 100.331 42.898C100.415 42.898 100.49 42.949 100.556 43.051L101.024 43.816C100.748 44.074 100.415 44.278 100.025 44.428C99.6348 44.572 99.2328 44.644 98.8188 44.644ZM106.351 35.239C107.017 35.239 107.617 35.35 108.151 35.572C108.685 35.794 109.141 36.109 109.519 36.517C109.897 36.925 110.185 37.42 110.383 38.002C110.587 38.578 110.689 39.223 110.689 39.937C110.689 40.657 110.587 41.305 110.383 41.881C110.185 42.457 109.897 42.949 109.519 43.357C109.141 43.765 108.685 44.08 108.151 44.302C107.617 44.518 107.017 44.626 106.351 44.626C105.679 44.626 105.073 44.518 104.533 44.302C103.999 44.08 103.543 43.765 103.165 43.357C102.787 42.949 102.496 42.457 102.292 41.881C102.094 41.305 101.995 40.657 101.995 39.937C101.995 39.223 102.094 38.578 102.292 38.002C102.496 37.42 102.787 36.925 103.165 36.517C103.543 36.109 103.999 35.794 104.533 35.572C105.073 35.35 105.679 35.239 106.351 35.239ZM106.351 43.375C107.251 43.375 107.923 43.075 108.367 42.475C108.811 41.869 109.033 41.026 109.033 39.946C109.033 38.86 108.811 38.014 108.367 37.408C107.923 36.802 107.251 36.499 106.351 36.499C105.895 36.499 105.496 36.577 105.154 36.733C104.818 36.889 104.536 37.114 104.308 37.408C104.086 37.702 103.918 38.065 103.804 38.497C103.696 38.923 103.642 39.406 103.642 39.946C103.642 41.026 103.864 41.869 104.308 42.475C104.758 43.075 105.439 43.375 106.351 43.375ZM114.332 37.21C114.62 36.586 114.974 36.1 115.394 35.752C115.814 35.398 116.327 35.221 116.933 35.221C117.125 35.221 117.308 35.242 117.482 35.284C117.662 35.326 117.821 35.392 117.959 35.482L117.842 36.679C117.806 36.829 117.716 36.904 117.572 36.904C117.488 36.904 117.365 36.886 117.203 36.85C117.041 36.814 116.858 36.796 116.654 36.796C116.366 36.796 116.108 36.838 115.88 36.922C115.658 37.006 115.457 37.132 115.277 37.3C115.103 37.462 114.944 37.666 114.8 37.912C114.662 38.152 114.536 38.428 114.422 38.74V44.5H112.811V35.383H113.729C113.903 35.383 114.023 35.416 114.089 35.482C114.155 35.548 114.2 35.662 114.224 35.824L114.332 37.21ZM125.191 38.947C125.191 38.575 125.137 38.236 125.029 37.93C124.927 37.618 124.774 37.351 124.57 37.129C124.372 36.901 124.129 36.727 123.841 36.607C123.553 36.481 123.226 36.418 122.86 36.418C122.092 36.418 121.483 36.643 121.033 37.093C120.589 37.537 120.313 38.155 120.205 38.947H125.191ZM126.487 43.222C126.289 43.462 126.052 43.672 125.776 43.852C125.5 44.026 125.203 44.17 124.885 44.284C124.573 44.398 124.249 44.482 123.913 44.536C123.577 44.596 123.244 44.626 122.914 44.626C122.284 44.626 121.702 44.521 121.168 44.311C120.64 44.095 120.181 43.783 119.791 43.375C119.407 42.961 119.107 42.451 118.891 41.845C118.675 41.239 118.567 40.543 118.567 39.757C118.567 39.121 118.663 38.527 118.855 37.975C119.053 37.423 119.335 36.946 119.701 36.544C120.067 36.136 120.514 35.818 121.042 35.59C121.57 35.356 122.164 35.239 122.824 35.239C123.37 35.239 123.874 35.332 124.336 35.518C124.804 35.698 125.206 35.962 125.542 36.31C125.884 36.652 126.151 37.078 126.343 37.588C126.535 38.092 126.631 38.668 126.631 39.316C126.631 39.568 126.604 39.736 126.55 39.82C126.496 39.904 126.394 39.946 126.244 39.946H120.151C120.169 40.522 120.247 41.023 120.385 41.449C120.529 41.875 120.727 42.232 120.979 42.52C121.231 42.802 121.531 43.015 121.879 43.159C122.227 43.297 122.617 43.366 123.049 43.366C123.451 43.366 123.796 43.321 124.084 43.231C124.378 43.135 124.63 43.033 124.84 42.925C125.05 42.817 125.224 42.718 125.362 42.628C125.506 42.532 125.629 42.484 125.731 42.484C125.863 42.484 125.965 42.535 126.037 42.637L126.487 43.222Z" fill="#0c332e"/>
</svg>
