<svg width="163" height="58" viewBox="0 0 163 58" fill="none" xmlns="http://www.w3.org/2000/svg">
<rect width="163" height="58" rx="14" fill="#D7F1F7"/>
<path d="M19.9349 38.0725C19.8533 38.154 19.9509 38.2865 20.0524 38.2316C22.6406 36.8316 26.135 34.9401 29.0882 33.3362C29.1472 33.3042 29.158 33.2244 29.1101 33.1773L27.0292 31.1284C26.9901 31.0899 26.9272 31.0901 26.8884 31.1289L19.9349 38.0725Z" fill="#0c332e"/>
<path d="M26.882 28.8747C26.9211 28.9134 26.9841 28.9133 27.023 28.8744L29.1048 26.7945C29.1522 26.7472 29.1405 26.6676 29.0816 26.6358L28.0616 26.0852C26.8352 25.4232 25.1918 24.5363 23.5239 23.6365C22.2749 22.9626 21.0134 22.2822 19.9032 21.6838C19.8016 21.629 19.7034 21.7616 19.7854 21.8428L26.882 28.8747Z" fill="#0c332e"/>
<path d="M15.9609 21.2949C15.9609 21.0625 15.9961 20.868 16.0572 20.7078C16.1204 20.5423 16.329 20.5296 16.4548 20.6543L25.8195 29.9335C25.8589 29.9726 25.859 30.0362 25.8197 30.0754L16.421 39.4462C16.2825 39.5842 16.0537 39.5508 16.0094 39.3604C15.9772 39.2221 15.9609 39.0688 15.9609 38.9041V21.2949Z" fill="#0c332e"/>
<path d="M30.6491 32.4873C30.6104 32.5083 30.5626 32.5015 30.5312 32.4707L28.0933 30.0709C28.0537 30.0319 28.0535 29.968 28.093 29.9288L30.544 27.492C30.5754 27.4608 30.6239 27.4541 30.6627 27.4753C32.749 28.6132 34.3765 29.4966 34.8726 29.7591C34.8912 29.7689 34.9056 29.7838 34.9139 29.803C34.9592 29.9074 34.9697 30.0112 34.9543 30.1111C34.9498 30.14 34.9311 30.1638 34.9052 30.1774C34.6198 30.3278 33.6643 30.8475 32.3333 31.5715L32.3251 31.5759C31.8157 31.853 31.2516 32.1598 30.6491 32.4873Z" fill="#0c332e"/>
<path d="M57.0363 17.204C57.0363 17.848 56.9343 18.434 56.7303 18.962C56.5263 19.49 56.2383 19.942 55.8663 20.318C55.4943 20.694 55.0463 20.986 54.5223 21.194C54.0023 21.398 53.4263 21.5 52.7943 21.5H49.5843V12.902H52.7943C53.4263 12.902 54.0023 13.006 54.5223 13.214C55.0463 13.418 55.4943 13.71 55.8663 14.09C56.2383 14.466 56.5263 14.918 56.7303 15.446C56.9343 15.974 57.0363 16.56 57.0363 17.204ZM55.8423 17.204C55.8423 16.676 55.7703 16.204 55.6263 15.788C55.4823 15.372 55.2783 15.02 55.0143 14.732C54.7503 14.444 54.4303 14.224 54.0543 14.072C53.6783 13.92 53.2583 13.844 52.7943 13.844H50.7483V20.558H52.7943C53.2583 20.558 53.6783 20.482 54.0543 20.33C54.4303 20.178 54.7503 19.96 55.0143 19.676C55.2783 19.388 55.4823 19.036 55.6263 18.62C55.7703 18.204 55.8423 17.732 55.8423 17.204ZM61.0012 15.326C61.4452 15.326 61.8452 15.4 62.2012 15.548C62.5572 15.696 62.8612 15.906 63.1132 16.178C63.3652 16.45 63.5572 16.78 63.6892 17.168C63.8252 17.552 63.8932 17.982 63.8932 18.458C63.8932 18.938 63.8252 19.37 63.6892 19.754C63.5572 20.138 63.3652 20.466 63.1132 20.738C62.8612 21.01 62.5572 21.22 62.2012 21.368C61.8452 21.512 61.4452 21.584 61.0012 21.584C60.5532 21.584 60.1492 21.512 59.7892 21.368C59.4332 21.22 59.1292 21.01 58.8772 20.738C58.6252 20.466 58.4312 20.138 58.2952 19.754C58.1632 19.37 58.0972 18.938 58.0972 18.458C58.0972 17.982 58.1632 17.552 58.2952 17.168C58.4312 16.78 58.6252 16.45 58.8772 16.178C59.1292 15.906 59.4332 15.696 59.7892 15.548C60.1492 15.4 60.5532 15.326 61.0012 15.326ZM61.0012 20.75C61.6012 20.75 62.0492 20.55 62.3452 20.15C62.6412 19.746 62.7892 19.184 62.7892 18.464C62.7892 17.74 62.6412 17.176 62.3452 16.772C62.0492 16.368 61.6012 16.166 61.0012 16.166C60.6972 16.166 60.4312 16.218 60.2032 16.322C59.9792 16.426 59.7912 16.576 59.6392 16.772C59.4912 16.968 59.3792 17.21 59.3032 17.498C59.2312 17.782 59.1952 18.104 59.1952 18.464C59.1952 19.184 59.3432 19.746 59.6392 20.15C59.9392 20.55 60.3932 20.75 61.0012 20.75ZM73.596 15.422L71.628 21.5H70.782C70.678 21.5 70.606 21.432 70.566 21.296L69.222 17.174C69.19 17.082 69.164 16.99 69.144 16.898C69.124 16.802 69.104 16.708 69.084 16.616C69.064 16.708 69.044 16.802 69.024 16.898C69.004 16.99 68.978 17.084 68.946 17.18L67.578 21.296C67.542 21.432 67.462 21.5 67.338 21.5H66.534L64.566 15.422H65.406C65.49 15.422 65.56 15.444 65.616 15.488C65.676 15.532 65.716 15.584 65.736 15.644L66.9 19.556C66.968 19.844 67.022 20.116 67.062 20.372C67.098 20.24 67.134 20.106 67.17 19.97C67.21 19.834 67.252 19.696 67.296 19.556L68.58 15.62C68.6 15.56 68.634 15.51 68.682 15.47C68.734 15.43 68.796 15.41 68.868 15.41H69.336C69.416 15.41 69.482 15.43 69.534 15.47C69.586 15.51 69.622 15.56 69.642 15.62L70.896 19.556C70.94 19.696 70.98 19.834 71.016 19.97C71.052 20.106 71.086 20.24 71.118 20.372C71.138 20.24 71.162 20.108 71.19 19.976C71.222 19.84 71.256 19.7 71.292 19.556L72.48 15.644C72.5 15.58 72.538 15.528 72.594 15.488C72.65 15.444 72.716 15.422 72.792 15.422H73.596ZM75.7039 16.304C75.8359 16.156 75.9759 16.022 76.1239 15.902C76.2719 15.782 76.4279 15.68 76.5919 15.596C76.7599 15.508 76.9359 15.442 77.1199 15.398C77.3079 15.35 77.5099 15.326 77.7259 15.326C78.0579 15.326 78.3499 15.382 78.6019 15.494C78.8579 15.602 79.0699 15.758 79.2379 15.962C79.4099 16.162 79.5399 16.404 79.6279 16.688C79.7159 16.972 79.7599 17.286 79.7599 17.63V21.5H78.6859V17.63C78.6859 17.17 78.5799 16.814 78.3679 16.562C78.1599 16.306 77.8419 16.178 77.4139 16.178C77.0979 16.178 76.8019 16.254 76.5259 16.406C76.2539 16.558 76.0019 16.764 75.7699 17.024V21.5H74.6959V15.422H75.3379C75.4899 15.422 75.5839 15.496 75.6199 15.644L75.7039 16.304ZM82.5513 12.662V21.5H81.4833V12.662H82.5513ZM86.9053 15.326C87.3493 15.326 87.7493 15.4 88.1053 15.548C88.4613 15.696 88.7653 15.906 89.0173 16.178C89.2693 16.45 89.4613 16.78 89.5933 17.168C89.7293 17.552 89.7973 17.982 89.7973 18.458C89.7973 18.938 89.7293 19.37 89.5933 19.754C89.4613 20.138 89.2693 20.466 89.0173 20.738C88.7653 21.01 88.4613 21.22 88.1053 21.368C87.7493 21.512 87.3493 21.584 86.9053 21.584C86.4573 21.584 86.0533 21.512 85.6933 21.368C85.3373 21.22 85.0333 21.01 84.7813 20.738C84.5293 20.466 84.3353 20.138 84.1993 19.754C84.0673 19.37 84.0013 18.938 84.0013 18.458C84.0013 17.982 84.0673 17.552 84.1993 17.168C84.3353 16.78 84.5293 16.45 84.7813 16.178C85.0333 15.906 85.3373 15.696 85.6933 15.548C86.0533 15.4 86.4573 15.326 86.9053 15.326ZM86.9053 20.75C87.5053 20.75 87.9533 20.55 88.2493 20.15C88.5453 19.746 88.6933 19.184 88.6933 18.464C88.6933 17.74 88.5453 17.176 88.2493 16.772C87.9533 16.368 87.5053 16.166 86.9053 16.166C86.6013 16.166 86.3353 16.218 86.1073 16.322C85.8833 16.426 85.6953 16.576 85.5433 16.772C85.3953 16.968 85.2833 17.21 85.2073 17.498C85.1353 17.782 85.0993 18.104 85.0993 18.464C85.0993 19.184 85.2473 19.746 85.5433 20.15C85.8433 20.55 86.2973 20.75 86.9053 20.75ZM94.5059 18.764C94.0139 18.78 93.5939 18.82 93.2459 18.884C92.9019 18.944 92.6199 19.024 92.3999 19.124C92.1839 19.224 92.0259 19.342 91.9259 19.478C91.8299 19.614 91.7819 19.766 91.7819 19.934C91.7819 20.094 91.8079 20.232 91.8599 20.348C91.9119 20.464 91.9819 20.56 92.0699 20.636C92.1619 20.708 92.2679 20.762 92.3879 20.798C92.5119 20.83 92.6439 20.846 92.7839 20.846C92.9719 20.846 93.1439 20.828 93.2999 20.792C93.4559 20.752 93.6019 20.696 93.7379 20.624C93.8779 20.552 94.0099 20.466 94.1339 20.366C94.2619 20.266 94.3859 20.152 94.5059 20.024V18.764ZM91.0559 16.28C91.3919 15.956 91.7539 15.714 92.1419 15.554C92.5299 15.394 92.9599 15.314 93.4319 15.314C93.7719 15.314 94.0739 15.37 94.3379 15.482C94.6019 15.594 94.8239 15.75 95.0039 15.95C95.1839 16.15 95.3199 16.392 95.4119 16.676C95.5039 16.96 95.5499 17.272 95.5499 17.612V21.5H95.0759C94.9719 21.5 94.8919 21.484 94.8359 21.452C94.7799 21.416 94.7359 21.348 94.7039 21.248L94.5839 20.672C94.4239 20.82 94.2679 20.952 94.1159 21.068C93.9639 21.18 93.8039 21.276 93.6359 21.356C93.4679 21.432 93.2879 21.49 93.0959 21.53C92.9079 21.574 92.6979 21.596 92.4659 21.596C92.2299 21.596 92.0079 21.564 91.7999 21.5C91.5919 21.432 91.4099 21.332 91.2539 21.2C91.1019 21.068 90.9799 20.902 90.8879 20.702C90.7999 20.498 90.7559 20.258 90.7559 19.982C90.7559 19.742 90.8219 19.512 90.9539 19.292C91.0859 19.068 91.2999 18.87 91.5959 18.698C91.8919 18.526 92.2779 18.386 92.7539 18.278C93.2299 18.166 93.8139 18.102 94.5059 18.086V17.612C94.5059 17.14 94.4039 16.784 94.1999 16.544C93.9959 16.3 93.6979 16.178 93.3059 16.178C93.0419 16.178 92.8199 16.212 92.6399 16.28C92.4639 16.344 92.3099 16.418 92.1779 16.502C92.0499 16.582 91.9379 16.656 91.8419 16.724C91.7499 16.788 91.6579 16.82 91.5659 16.82C91.4939 16.82 91.4319 16.802 91.3799 16.766C91.3279 16.726 91.2839 16.678 91.2479 16.622L91.0559 16.28ZM101.197 16.868C100.997 16.6 100.781 16.414 100.549 16.31C100.317 16.202 100.057 16.148 99.7687 16.148C99.2047 16.148 98.7707 16.35 98.4667 16.754C98.1627 17.158 98.0107 17.734 98.0107 18.482C98.0107 18.878 98.0447 19.218 98.1127 19.502C98.1807 19.782 98.2807 20.014 98.4127 20.198C98.5447 20.378 98.7067 20.51 98.8987 20.594C99.0907 20.678 99.3087 20.72 99.5527 20.72C99.9047 20.72 100.211 20.64 100.471 20.48C100.735 20.32 100.977 20.094 101.197 19.802V16.868ZM102.265 12.662V21.5H101.629C101.477 21.5 101.381 21.426 101.341 21.278L101.245 20.54C100.985 20.852 100.689 21.104 100.357 21.296C100.025 21.488 99.6407 21.584 99.2047 21.584C98.8567 21.584 98.5407 21.518 98.2567 21.386C97.9727 21.25 97.7307 21.052 97.5307 20.792C97.3307 20.532 97.1767 20.208 97.0687 19.82C96.9607 19.432 96.9067 18.986 96.9067 18.482C96.9067 18.034 96.9667 17.618 97.0867 17.234C97.2067 16.846 97.3787 16.51 97.6027 16.226C97.8267 15.942 98.1007 15.72 98.4247 15.56C98.7527 15.396 99.1207 15.314 99.5287 15.314C99.9007 15.314 100.219 15.378 100.483 15.506C100.751 15.63 100.989 15.804 101.197 16.028V12.662H102.265ZM115.338 17.204C115.338 17.848 115.236 18.44 115.032 18.98C114.828 19.516 114.54 19.978 114.168 20.366C113.796 20.754 113.348 21.056 112.824 21.272C112.304 21.484 111.728 21.59 111.096 21.59C110.464 21.59 109.888 21.484 109.368 21.272C108.848 21.056 108.402 20.754 108.03 20.366C107.658 19.978 107.37 19.516 107.166 18.98C106.962 18.44 106.86 17.848 106.86 17.204C106.86 16.56 106.962 15.97 107.166 15.434C107.37 14.894 107.658 14.43 108.03 14.042C108.402 13.65 108.848 13.346 109.368 13.13C109.888 12.914 110.464 12.806 111.096 12.806C111.728 12.806 112.304 12.914 112.824 13.13C113.348 13.346 113.796 13.65 114.168 14.042C114.54 14.43 114.828 14.894 115.032 15.434C115.236 15.97 115.338 16.56 115.338 17.204ZM114.144 17.204C114.144 16.676 114.072 16.202 113.928 15.782C113.784 15.362 113.58 15.008 113.316 14.72C113.052 14.428 112.732 14.204 112.356 14.048C111.98 13.892 111.56 13.814 111.096 13.814C110.636 13.814 110.218 13.892 109.842 14.048C109.466 14.204 109.144 14.428 108.876 14.72C108.612 15.008 108.408 15.362 108.264 15.782C108.12 16.202 108.048 16.676 108.048 17.204C108.048 17.732 108.12 18.206 108.264 18.626C108.408 19.042 108.612 19.396 108.876 19.688C109.144 19.976 109.466 20.198 109.842 20.354C110.218 20.506 110.636 20.582 111.096 20.582C111.56 20.582 111.98 20.506 112.356 20.354C112.732 20.198 113.052 19.976 113.316 19.688C113.58 19.396 113.784 19.042 113.928 18.626C114.072 18.206 114.144 17.732 114.144 17.204ZM121.715 15.422V21.5H121.079C120.927 21.5 120.831 21.426 120.791 21.278L120.707 20.624C120.443 20.916 120.147 21.152 119.819 21.332C119.491 21.508 119.115 21.596 118.691 21.596C118.359 21.596 118.065 21.542 117.809 21.434C117.557 21.322 117.345 21.166 117.173 20.966C117.001 20.766 116.871 20.524 116.783 20.24C116.699 19.956 116.657 19.642 116.657 19.298V15.422H117.725V19.298C117.725 19.758 117.829 20.114 118.037 20.366C118.249 20.618 118.571 20.744 119.003 20.744C119.319 20.744 119.613 20.67 119.885 20.522C120.161 20.37 120.415 20.162 120.647 19.898V15.422H121.715ZM124.483 16.64C124.675 16.224 124.911 15.9 125.191 15.668C125.471 15.432 125.813 15.314 126.217 15.314C126.345 15.314 126.467 15.328 126.583 15.356C126.703 15.384 126.809 15.428 126.901 15.488L126.823 16.286C126.799 16.386 126.739 16.436 126.643 16.436C126.587 16.436 126.505 16.424 126.397 16.4C126.289 16.376 126.167 16.364 126.031 16.364C125.839 16.364 125.667 16.392 125.515 16.448C125.367 16.504 125.233 16.588 125.113 16.7C124.997 16.808 124.891 16.944 124.795 17.108C124.703 17.268 124.619 17.452 124.543 17.66V21.5H123.469V15.422H124.081C124.197 15.422 124.277 15.444 124.321 15.488C124.365 15.532 124.395 15.608 124.411 15.716L124.483 16.64ZM135.192 18.308L133.842 14.81C133.802 14.706 133.76 14.586 133.716 14.45C133.672 14.31 133.63 14.162 133.59 14.006C133.506 14.33 133.42 14.6 133.332 14.816L131.982 18.308H135.192ZM137.616 21.5H136.716C136.612 21.5 136.528 21.474 136.464 21.422C136.4 21.37 136.352 21.304 136.32 21.224L135.516 19.148H131.658L130.854 21.224C130.83 21.296 130.784 21.36 130.716 21.416C130.648 21.472 130.564 21.5 130.464 21.5H129.564L133.002 12.902H134.178L137.616 21.5ZM139.606 20.036C139.802 20.3 140.016 20.486 140.248 20.594C140.48 20.702 140.74 20.756 141.028 20.756C141.596 20.756 142.032 20.554 142.336 20.15C142.64 19.746 142.792 19.17 142.792 18.422C142.792 18.026 142.756 17.686 142.684 17.402C142.616 17.118 142.516 16.886 142.384 16.706C142.252 16.522 142.09 16.388 141.898 16.304C141.706 16.22 141.488 16.178 141.244 16.178C140.896 16.178 140.59 16.258 140.326 16.418C140.066 16.578 139.826 16.804 139.606 17.096V20.036ZM139.552 16.364C139.808 16.048 140.104 15.794 140.44 15.602C140.776 15.41 141.16 15.314 141.592 15.314C141.944 15.314 142.262 15.382 142.546 15.518C142.83 15.65 143.072 15.848 143.272 16.112C143.472 16.372 143.626 16.696 143.734 17.084C143.842 17.472 143.896 17.918 143.896 18.422C143.896 18.87 143.836 19.288 143.716 19.676C143.596 20.06 143.422 20.394 143.194 20.678C142.97 20.958 142.694 21.18 142.366 21.344C142.042 21.504 141.676 21.584 141.268 21.584C140.896 21.584 140.576 21.522 140.308 21.398C140.044 21.27 139.81 21.094 139.606 20.87V23.558H138.532V15.422H139.174C139.326 15.422 139.42 15.496 139.456 15.644L139.552 16.364ZM146.392 20.036C146.588 20.3 146.802 20.486 147.034 20.594C147.266 20.702 147.526 20.756 147.814 20.756C148.382 20.756 148.818 20.554 149.122 20.15C149.426 19.746 149.578 19.17 149.578 18.422C149.578 18.026 149.542 17.686 149.47 17.402C149.402 17.118 149.302 16.886 149.17 16.706C149.038 16.522 148.876 16.388 148.684 16.304C148.492 16.22 148.274 16.178 148.03 16.178C147.682 16.178 147.376 16.258 147.112 16.418C146.852 16.578 146.612 16.804 146.392 17.096V20.036ZM146.338 16.364C146.594 16.048 146.89 15.794 147.226 15.602C147.562 15.41 147.946 15.314 148.378 15.314C148.73 15.314 149.048 15.382 149.332 15.518C149.616 15.65 149.858 15.848 150.058 16.112C150.258 16.372 150.412 16.696 150.52 17.084C150.628 17.472 150.682 17.918 150.682 18.422C150.682 18.87 150.622 19.288 150.502 19.676C150.382 20.06 150.208 20.394 149.98 20.678C149.756 20.958 149.48 21.18 149.152 21.344C148.828 21.504 148.462 21.584 148.054 21.584C147.682 21.584 147.362 21.522 147.094 21.398C146.83 21.27 146.596 21.094 146.392 20.87V23.558H145.318V15.422H145.96C146.112 15.422 146.206 15.496 146.242 15.644L146.338 16.364Z" fill="#0c332e"/>
<path d="M53.9403 38.29C54.4383 38.29 54.8763 38.224 55.2543 38.092C55.6383 37.96 55.9593 37.777 56.2173 37.543C56.4813 37.303 56.6793 37.018 56.8113 36.688C56.9433 36.358 57.0093 35.995 57.0093 35.599C57.0093 34.777 56.7543 34.135 56.2443 33.673C55.7403 33.211 54.9723 32.98 53.9403 32.98H51.8703V38.29H53.9403ZM53.9403 31.603C54.7563 31.603 55.4643 31.699 56.0643 31.891C56.6703 32.077 57.1713 32.344 57.5673 32.692C57.9633 33.04 58.2573 33.46 58.4493 33.952C58.6473 34.444 58.7463 34.993 58.7463 35.599C58.7463 36.199 58.6413 36.748 58.4313 37.246C58.2213 37.744 57.9123 38.173 57.5043 38.533C57.1023 38.893 56.6013 39.175 56.0013 39.379C55.4073 39.577 54.7203 39.676 53.9403 39.676H51.8703V44.5H50.1333V31.603H53.9403ZM62.2591 31.243V44.5H60.6571V31.243H62.2591ZM69.888 40.396C69.15 40.42 68.52 40.48 67.998 40.576C67.482 40.666 67.059 40.786 66.729 40.936C66.405 41.086 66.168 41.263 66.018 41.467C65.874 41.671 65.802 41.899 65.802 42.151C65.802 42.391 65.841 42.598 65.919 42.772C65.997 42.946 66.102 43.09 66.234 43.204C66.372 43.312 66.531 43.393 66.711 43.447C66.897 43.495 67.095 43.519 67.305 43.519C67.587 43.519 67.845 43.492 68.079 43.438C68.313 43.378 68.532 43.294 68.736 43.186C68.946 43.078 69.144 42.949 69.33 42.799C69.522 42.649 69.708 42.478 69.888 42.286V40.396ZM64.713 36.67C65.217 36.184 65.76 35.821 66.342 35.581C66.924 35.341 67.569 35.221 68.277 35.221C68.787 35.221 69.24 35.305 69.636 35.473C70.032 35.641 70.365 35.875 70.635 36.175C70.905 36.475 71.109 36.838 71.247 37.264C71.385 37.69 71.454 38.158 71.454 38.668V44.5H70.743C70.587 44.5 70.467 44.476 70.383 44.428C70.299 44.374 70.233 44.272 70.185 44.122L70.005 43.258C69.765 43.48 69.531 43.678 69.303 43.852C69.075 44.02 68.835 44.164 68.583 44.284C68.331 44.398 68.061 44.485 67.773 44.545C67.491 44.611 67.176 44.644 66.828 44.644C66.474 44.644 66.141 44.596 65.829 44.5C65.517 44.398 65.244 44.248 65.01 44.05C64.782 43.852 64.599 43.603 64.461 43.303C64.329 42.997 64.263 42.637 64.263 42.223C64.263 41.863 64.362 41.518 64.56 41.188C64.758 40.852 65.079 40.555 65.523 40.297C65.967 40.039 66.546 39.829 67.26 39.667C67.974 39.499 68.85 39.403 69.888 39.379V38.668C69.888 37.96 69.735 37.426 69.429 37.066C69.123 36.7 68.676 36.517 68.088 36.517C67.692 36.517 67.359 36.568 67.089 36.67C66.825 36.766 66.594 36.877 66.396 37.003C66.204 37.123 66.036 37.234 65.892 37.336C65.754 37.432 65.616 37.48 65.478 37.48C65.37 37.48 65.277 37.453 65.199 37.399C65.121 37.339 65.055 37.267 65.001 37.183L64.713 36.67ZM81.6394 35.383L76.5544 47.191C76.5004 47.311 76.4314 47.407 76.3474 47.479C76.2694 47.551 76.1464 47.587 75.9784 47.587H74.7904L76.4554 43.969L72.6934 35.383H74.0794C74.2174 35.383 74.3254 35.419 74.4034 35.491C74.4874 35.557 74.5444 35.632 74.5744 35.716L77.0134 41.458C77.1094 41.71 77.1904 41.974 77.2564 42.25C77.3404 41.968 77.4304 41.701 77.5264 41.449L79.8934 35.716C79.9294 35.62 79.9894 35.542 80.0734 35.482C80.1634 35.416 80.2624 35.383 80.3704 35.383H81.6394ZM94.3756 33.619C94.3216 33.709 94.2616 33.778 94.1956 33.826C94.1356 33.868 94.0606 33.889 93.9706 33.889C93.8686 33.889 93.7486 33.838 93.6106 33.736C93.4726 33.634 93.2986 33.523 93.0886 33.403C92.8846 33.277 92.6356 33.163 92.3416 33.061C92.0536 32.959 91.7026 32.908 91.2886 32.908C90.8986 32.908 90.5536 32.962 90.2536 33.07C89.9596 33.172 89.7106 33.313 89.5066 33.493C89.3086 33.673 89.1586 33.886 89.0566 34.132C88.9546 34.372 88.9036 34.633 88.9036 34.915C88.9036 35.275 88.9906 35.575 89.1646 35.815C89.3446 36.049 89.5786 36.25 89.8666 36.418C90.1606 36.586 90.4906 36.733 90.8566 36.859C91.2286 36.979 91.6066 37.105 91.9906 37.237C92.3806 37.369 92.7586 37.519 93.1246 37.687C93.4966 37.849 93.8266 38.056 94.1146 38.308C94.4086 38.56 94.6426 38.869 94.8166 39.235C94.9966 39.601 95.0866 40.051 95.0866 40.585C95.0866 41.149 94.9906 41.68 94.7986 42.178C94.6066 42.67 94.3246 43.099 93.9526 43.465C93.5866 43.831 93.1336 44.119 92.5936 44.329C92.0596 44.539 91.4506 44.644 90.7666 44.644C89.9266 44.644 89.1646 44.494 88.4806 44.194C87.7966 43.888 87.2116 43.477 86.7256 42.961L87.2296 42.133C87.2776 42.067 87.3346 42.013 87.4006 41.971C87.4726 41.923 87.5506 41.899 87.6346 41.899C87.7126 41.899 87.7996 41.932 87.8956 41.998C87.9976 42.058 88.1116 42.136 88.2376 42.232C88.3636 42.328 88.5076 42.433 88.6696 42.547C88.8316 42.661 89.0146 42.766 89.2186 42.862C89.4286 42.958 89.6656 43.039 89.9296 43.105C90.1936 43.165 90.4906 43.195 90.8206 43.195C91.2346 43.195 91.6036 43.138 91.9276 43.024C92.2516 42.91 92.5246 42.751 92.7466 42.547C92.9746 42.337 93.1486 42.088 93.2686 41.8C93.3886 41.512 93.4486 41.191 93.4486 40.837C93.4486 40.447 93.3586 40.129 93.1786 39.883C93.0046 39.631 92.7736 39.421 92.4856 39.253C92.1976 39.085 91.8676 38.944 91.4956 38.83C91.1236 38.71 90.7456 38.59 90.3616 38.47C89.9776 38.344 89.5996 38.2 89.2276 38.038C88.8556 37.876 88.5256 37.666 88.2376 37.408C87.9496 37.15 87.7156 36.829 87.5356 36.445C87.3616 36.055 87.2746 35.575 87.2746 35.005C87.2746 34.549 87.3616 34.108 87.5356 33.682C87.7156 33.256 87.9736 32.878 88.3096 32.548C88.6516 32.218 89.0686 31.954 89.5606 31.756C90.0586 31.558 90.6286 31.459 91.2706 31.459C91.9906 31.459 92.6446 31.573 93.2326 31.801C93.8266 32.029 94.3486 32.359 94.7986 32.791L94.3756 33.619ZM99.6588 44.644C98.9388 44.644 98.3838 44.443 97.9938 44.041C97.6098 43.639 97.4178 43.06 97.4178 42.304V36.724H96.3198C96.2238 36.724 96.1428 36.697 96.0768 36.643C96.0108 36.583 95.9778 36.493 95.9778 36.373V35.734L97.4718 35.545L97.8408 32.728C97.8588 32.638 97.8978 32.566 97.9578 32.512C98.0238 32.452 98.1078 32.422 98.2098 32.422H99.0198V35.563H101.657V36.724H99.0198V42.196C99.0198 42.58 99.1128 42.865 99.2988 43.051C99.4848 43.237 99.7248 43.33 100.019 43.33C100.187 43.33 100.331 43.309 100.451 43.267C100.577 43.219 100.685 43.168 100.775 43.114C100.865 43.06 100.94 43.012 101 42.97C101.066 42.922 101.123 42.898 101.171 42.898C101.255 42.898 101.33 42.949 101.396 43.051L101.864 43.816C101.588 44.074 101.255 44.278 100.865 44.428C100.475 44.572 100.073 44.644 99.6588 44.644ZM107.191 35.239C107.857 35.239 108.457 35.35 108.991 35.572C109.525 35.794 109.981 36.109 110.359 36.517C110.737 36.925 111.025 37.42 111.223 38.002C111.427 38.578 111.529 39.223 111.529 39.937C111.529 40.657 111.427 41.305 111.223 41.881C111.025 42.457 110.737 42.949 110.359 43.357C109.981 43.765 109.525 44.08 108.991 44.302C108.457 44.518 107.857 44.626 107.191 44.626C106.519 44.626 105.913 44.518 105.373 44.302C104.839 44.08 104.383 43.765 104.005 43.357C103.627 42.949 103.336 42.457 103.132 41.881C102.934 41.305 102.835 40.657 102.835 39.937C102.835 39.223 102.934 38.578 103.132 38.002C103.336 37.42 103.627 36.925 104.005 36.517C104.383 36.109 104.839 35.794 105.373 35.572C105.913 35.35 106.519 35.239 107.191 35.239ZM107.191 43.375C108.091 43.375 108.763 43.075 109.207 42.475C109.651 41.869 109.873 41.026 109.873 39.946C109.873 38.86 109.651 38.014 109.207 37.408C108.763 36.802 108.091 36.499 107.191 36.499C106.735 36.499 106.336 36.577 105.994 36.733C105.658 36.889 105.376 37.114 105.148 37.408C104.926 37.702 104.758 38.065 104.644 38.497C104.536 38.923 104.482 39.406 104.482 39.946C104.482 41.026 104.704 41.869 105.148 42.475C105.598 43.075 106.279 43.375 107.191 43.375ZM115.172 37.21C115.46 36.586 115.814 36.1 116.234 35.752C116.654 35.398 117.167 35.221 117.773 35.221C117.965 35.221 118.148 35.242 118.322 35.284C118.502 35.326 118.661 35.392 118.799 35.482L118.682 36.679C118.646 36.829 118.556 36.904 118.412 36.904C118.328 36.904 118.205 36.886 118.043 36.85C117.881 36.814 117.698 36.796 117.494 36.796C117.206 36.796 116.948 36.838 116.72 36.922C116.498 37.006 116.297 37.132 116.117 37.3C115.943 37.462 115.784 37.666 115.64 37.912C115.502 38.152 115.376 38.428 115.262 38.74V44.5H113.651V35.383H114.569C114.743 35.383 114.863 35.416 114.929 35.482C114.995 35.548 115.04 35.662 115.064 35.824L115.172 37.21ZM126.031 38.947C126.031 38.575 125.977 38.236 125.869 37.93C125.767 37.618 125.614 37.351 125.41 37.129C125.212 36.901 124.969 36.727 124.681 36.607C124.393 36.481 124.066 36.418 123.7 36.418C122.932 36.418 122.323 36.643 121.873 37.093C121.429 37.537 121.153 38.155 121.045 38.947H126.031ZM127.327 43.222C127.129 43.462 126.892 43.672 126.616 43.852C126.34 44.026 126.043 44.17 125.725 44.284C125.413 44.398 125.089 44.482 124.753 44.536C124.417 44.596 124.084 44.626 123.754 44.626C123.124 44.626 122.542 44.521 122.008 44.311C121.48 44.095 121.021 43.783 120.631 43.375C120.247 42.961 119.947 42.451 119.731 41.845C119.515 41.239 119.407 40.543 119.407 39.757C119.407 39.121 119.503 38.527 119.695 37.975C119.893 37.423 120.175 36.946 120.541 36.544C120.907 36.136 121.354 35.818 121.882 35.59C122.41 35.356 123.004 35.239 123.664 35.239C124.21 35.239 124.714 35.332 125.176 35.518C125.644 35.698 126.046 35.962 126.382 36.31C126.724 36.652 126.991 37.078 127.183 37.588C127.375 38.092 127.471 38.668 127.471 39.316C127.471 39.568 127.444 39.736 127.39 39.82C127.336 39.904 127.234 39.946 127.084 39.946H120.991C121.009 40.522 121.087 41.023 121.225 41.449C121.369 41.875 121.567 42.232 121.819 42.52C122.071 42.802 122.371 43.015 122.719 43.159C123.067 43.297 123.457 43.366 123.889 43.366C124.291 43.366 124.636 43.321 124.924 43.231C125.218 43.135 125.47 43.033 125.68 42.925C125.89 42.817 126.064 42.718 126.202 42.628C126.346 42.532 126.469 42.484 126.571 42.484C126.703 42.484 126.805 42.535 126.877 42.637L127.327 43.222Z" fill="#0c332e"/>
</svg>
