<svg width="42" height="42" viewBox="0 0 42 42" fill="none" xmlns="http://www.w3.org/2000/svg">
<circle cx="21" cy="21" r="21" fill="url(#paint0_linear_16_738)"/>
<path fill-rule="evenodd" clip-rule="evenodd" d="M21 13.9961C19.0983 13.9961 18.8615 14.0043 18.1137 14.0393C15.5703 14.1559 14.1587 15.5664 14.042 18.1098C14.0082 18.8576 14 19.0956 14 20.9961C14 22.8978 14.0082 23.1358 14.042 23.8824C14.1587 26.4246 15.5703 27.8374 18.1137 27.9541C18.8615 27.9879 19.0983 27.9961 21 27.9961C22.9017 27.9961 23.1397 27.9879 23.8875 27.9541C26.4262 27.8374 27.8437 26.4269 27.958 23.8824C27.9918 23.1358 28 22.8978 28 20.9961C28 19.0956 27.9918 18.8576 27.958 18.1098C27.8437 15.5699 26.4308 14.1548 23.8875 14.0393C23.1397 14.0043 22.9017 13.9961 21 13.9961ZM21 15.2568C22.869 15.2568 23.0907 15.2638 23.8292 15.2977C25.7273 15.384 26.6117 16.2835 26.6992 18.1665C26.7318 18.905 26.7388 19.1255 26.7388 20.9945C26.7388 22.8635 26.7318 23.0852 26.6992 23.8225C26.6117 25.7043 25.7285 26.6062 23.8292 26.6925C23.0907 26.7252 22.8702 26.7333 21 26.7333C19.131 26.7333 18.9093 26.7263 18.172 26.6925C16.2703 26.605 15.3895 25.702 15.302 23.8225C15.2693 23.0852 15.2612 22.8635 15.2612 20.9945C15.2612 19.1255 15.2693 18.9038 15.302 18.1665C15.3883 16.2823 16.2727 15.3828 18.172 15.2965C18.9093 15.2627 19.131 15.2568 21 15.2568ZM17.4052 20.9958C17.4052 19.0102 19.0152 17.4013 20.9997 17.4013C22.9842 17.4013 24.5942 19.0113 24.5942 20.9958C24.5942 22.9815 22.9842 24.5903 20.9997 24.5903C19.0152 24.5903 17.4052 22.9815 17.4052 20.9958ZM21.0006 23.3278C19.7115 23.3278 18.6673 22.2836 18.6673 20.9945C18.6673 19.7065 19.7115 18.6611 21.0006 18.6611C22.2886 18.6611 23.3351 19.7053 23.3351 20.9945C23.3351 22.2836 22.2886 23.3278 21.0006 23.3278ZM23.8958 17.2608C23.8958 16.7965 24.2727 16.4208 24.7358 16.4208C25.2013 16.4208 25.577 16.7965 25.577 17.2608C25.577 17.7251 25.2002 18.1008 24.7358 18.1008C24.2715 18.1008 23.8958 17.724 23.8958 17.2608Z" fill="white"/>
<defs>
<linearGradient id="paint0_linear_16_738" x1="3.5" y1="-2.1875" x2="36.75" y2="47.6875" gradientUnits="userSpaceOnUse">
<stop stop-color="#D43C70"/>
<stop offset="1" stop-color="#FA8E34"/>
</linearGradient>
</defs>
</svg>
