<svg width="42" height="42" viewBox="0 0 42 42" fill="none" xmlns="http://www.w3.org/2000/svg">
<circle cx="21" cy="21" r="21" fill="url(#paint0_linear_16_735)"/>
<path d="M28 17.0975C27.4855 17.3262 26.9313 17.4802 26.3503 17.5502C26.9442 17.1943 27.398 16.632 27.6138 15.9612C27.0585 16.2902 26.4437 16.5293 25.7892 16.6577C25.2665 16.0988 24.5187 15.75 23.6938 15.75C21.8388 15.75 20.4762 17.4802 20.895 19.2768C18.5092 19.1567 16.3917 18.0133 14.9753 16.2762C14.2228 17.5665 14.5857 19.2558 15.8643 20.111C15.3942 20.0958 14.952 19.9663 14.5647 19.7517C14.5332 21.0817 15.4875 22.3265 16.8688 22.6042C16.4652 22.7138 16.0218 22.7395 15.5715 22.6532C15.9367 23.7942 16.9995 24.6237 18.2548 24.647C17.045 25.5943 15.5248 26.0178 14 25.8382C15.2717 26.6537 16.7802 27.1285 18.4018 27.1285C23.7358 27.1285 26.7482 22.624 26.5662 18.5838C27.1285 18.1802 27.615 17.6738 28 17.0975Z" fill="white"/>
<defs>
<linearGradient id="paint0_linear_16_735" x1="7.875" y1="2.54251e-07" x2="42" y2="49.875" gradientUnits="userSpaceOnUse">
<stop stop-color="#47ACDF"/>
<stop offset="1" stop-color="#35A0D6" stop-opacity="0.51"/>
</linearGradient>
</defs>
</svg>
